<?xml version="1.0" encoding="UTF-8"?>
<svg xmlns="http://www.w3.org/2000/svg" xmlns:xlink="http://www.w3.org/1999/xlink" width="50px" height="50px" viewBox="0 0 50 50" version="1.1">
<g id="surface1">
<path style=" stroke:none;fill-rule:nonzero;fill:rgb(0%,0%,0%);fill-opacity:1;" d="M 44.820312 1.261719 C 44.820312 0.5625 44.257812 0 43.558594 0 L 12.953125 0 C 8.65625 0 5.167969 3.496094 5.167969 7.785156 L 5.167969 42.214844 C 5.167969 46.511719 8.667969 50 12.953125 50 L 43.570312 50 C 44.265625 50 44.832031 49.4375 44.832031 48.738281 L 44.832031 14.316406 C 44.832031 13.621094 44.265625 13.054688 43.570312 13.054688 L 12.953125 13.054688 C 10.050781 13.054688 7.683594 10.6875 7.683594 7.785156 C 7.683594 4.882812 10.050781 2.511719 12.953125 2.511719 L 43.570312 2.511719 C 44.257812 2.511719 44.820312 1.949219 44.820312 1.261719 Z M 12.953125 15.570312 L 42.308594 15.570312 L 42.308594 47.488281 L 12.953125 47.488281 C 10.050781 47.488281 7.683594 45.117188 7.683594 42.214844 L 7.683594 13.507812 C 9.066406 14.789062 10.921875 15.570312 12.953125 15.570312 Z M 12.953125 15.570312 "/>
<path style=" stroke:none;fill-rule:nonzero;fill:rgb(0%,0%,0%);fill-opacity:1;" d="M 13.382812 6.644531 C 12.6875 6.644531 12.125 7.210938 12.125 7.90625 C 12.125 8.605469 12.6875 9.167969 13.382812 9.167969 L 42.113281 9.167969 C 42.808594 9.167969 43.375 8.605469 43.375 7.90625 C 43.375 7.210938 42.808594 6.644531 42.113281 6.644531 Z M 13.382812 6.644531 "/>
<path style=" stroke:none;fill-rule:nonzero;fill:rgb(0%,0%,0%);fill-opacity:1;" d="M 18.257812 40.789062 C 18.902344 41.035156 19.628906 40.71875 19.875 40.0625 L 21.710938 35.261719 L 28.144531 35.261719 C 28.195312 35.261719 28.234375 35.25 28.277344 35.25 L 30.113281 40.0625 C 30.308594 40.5625 30.78125 40.871094 31.28125 40.871094 C 31.4375 40.871094 31.578125 40.839844 31.734375 40.789062 C 32.378906 40.542969 32.707031 39.816406 32.460938 39.167969 L 26.921875 24.6875 C 26.617188 23.875 25.855469 23.355469 24.996094 23.355469 C 24.132812 23.355469 23.375 23.875 23.066406 24.6875 L 17.527344 39.167969 C 17.28125 39.816406 17.609375 40.535156 18.257812 40.789062 Z M 24.996094 26.667969 L 27.324219 32.75 L 22.675781 32.75 Z M 24.996094 26.667969 "/>
</g>
</svg>
