<?xml version="1.0" encoding="UTF-8"?>
<svg xmlns="http://www.w3.org/2000/svg" xmlns:xlink="http://www.w3.org/1999/xlink" width="50px" height="50px" viewBox="0 0 50 50" version="1.1">
<g id="surface1">
<path style=" stroke:none;fill-rule:nonzero;fill:rgb(0%,0%,0%);fill-opacity:1;" d="M 20.476562 31.359375 L 19.144531 31.359375 L 19.144531 28.605469 C 19.144531 28.164062 18.789062 27.808594 18.347656 27.808594 C 17.90625 27.808594 17.550781 28.164062 17.550781 28.605469 L 17.550781 31.359375 L 15.777344 31.359375 L 15.777344 25.414062 C 15.777344 24.972656 15.421875 24.617188 14.980469 24.617188 C 14.539062 24.617188 14.183594 24.972656 14.183594 25.414062 L 14.183594 31.359375 L 12.410156 31.359375 L 12.410156 28.605469 C 12.410156 28.164062 12.054688 27.808594 11.613281 27.808594 C 11.171875 27.808594 10.816406 28.164062 10.816406 28.605469 L 10.816406 31.359375 L 9.042969 31.359375 L 9.042969 25.414062 C 9.042969 24.972656 8.683594 24.617188 8.246094 24.617188 C 7.804688 24.617188 7.445312 24.972656 7.445312 25.414062 L 7.445312 32.15625 C 7.445312 32.597656 7.804688 32.957031 8.246094 32.957031 L 20.476562 32.957031 C 20.914062 32.957031 21.273438 32.597656 21.273438 32.15625 C 21.273438 31.71875 20.914062 31.359375 20.476562 31.359375 Z M 20.476562 31.359375 "/>
<path style=" stroke:none;fill-rule:nonzero;fill:rgb(0%,0%,0%);fill-opacity:1;" d="M 20.476562 5.664062 L 8.246094 5.664062 C 7.804688 5.664062 7.445312 6.023438 7.445312 6.460938 C 7.445312 6.902344 7.804688 7.261719 8.246094 7.261719 L 20.476562 7.261719 C 20.914062 7.261719 21.273438 6.902344 21.273438 6.460938 C 21.273438 6.023438 20.914062 5.664062 20.476562 5.664062 Z M 20.476562 5.664062 "/>
<path style=" stroke:none;fill-rule:nonzero;fill:rgb(0%,0%,0%);fill-opacity:1;" d="M 20.476562 9.457031 L 8.246094 9.457031 C 7.804688 9.457031 7.445312 9.8125 7.445312 10.253906 C 7.445312 10.695312 7.804688 11.050781 8.246094 11.050781 L 20.476562 11.050781 C 20.914062 11.050781 21.273438 10.695312 21.273438 10.253906 C 21.273438 9.8125 20.914062 9.457031 20.476562 9.457031 Z M 20.476562 9.457031 "/>
<path style=" stroke:none;fill-rule:nonzero;fill:rgb(0%,0%,0%);fill-opacity:1;" d="M 8.246094 14.839844 L 14.359375 14.839844 C 14.800781 14.839844 15.15625 14.484375 15.15625 14.042969 C 15.15625 13.601562 14.800781 13.246094 14.359375 13.246094 L 8.246094 13.246094 C 7.804688 13.246094 7.445312 13.601562 7.445312 14.042969 C 7.445312 14.484375 7.804688 14.839844 8.246094 14.839844 Z M 8.246094 14.839844 "/>
<path style=" stroke:none;fill-rule:nonzero;fill:rgb(0%,0%,0%);fill-opacity:1;" d="M 20.476562 17.035156 L 8.246094 17.035156 C 7.804688 17.035156 7.445312 17.394531 7.445312 17.832031 C 7.445312 18.273438 7.804688 18.632812 8.246094 18.632812 L 20.476562 18.632812 C 20.914062 18.632812 21.273438 18.273438 21.273438 17.832031 C 21.273438 17.394531 20.914062 17.035156 20.476562 17.035156 Z M 20.476562 17.035156 "/>
<path style=" stroke:none;fill-rule:nonzero;fill:rgb(0%,0%,0%);fill-opacity:1;" d="M 20.476562 20.824219 L 8.246094 20.824219 C 7.804688 20.824219 7.445312 21.183594 7.445312 21.625 C 7.445312 22.0625 7.804688 22.421875 8.246094 22.421875 L 20.476562 22.421875 C 20.914062 22.421875 21.273438 22.0625 21.273438 21.625 C 21.273438 21.183594 20.914062 20.824219 20.476562 20.824219 Z M 20.476562 20.824219 "/>
<path style=" stroke:none;fill-rule:nonzero;fill:rgb(0%,0%,0%);fill-opacity:1;" d="M 25 6.242188 C 24.558594 6.242188 24.203125 6.597656 24.203125 7.039062 L 24.203125 33.9375 C 24.203125 34.378906 24.558594 34.738281 25 34.738281 C 25.441406 34.738281 25.796875 34.378906 25.796875 33.9375 L 25.796875 7.039062 C 25.796875 6.597656 25.441406 6.242188 25 6.242188 Z M 25 6.242188 "/>
<path style=" stroke:none;fill-rule:nonzero;fill:rgb(0%,0%,0%);fill-opacity:1;" d="M 49.203125 7.792969 L 46.808594 7.792969 L 46.808594 2.207031 C 46.808594 1.765625 46.453125 1.410156 46.011719 1.410156 L 28.054688 1.410156 C 26.90625 1.410156 25.820312 1.847656 25 2.621094 C 24.179688 1.847656 23.09375 1.410156 21.945312 1.410156 L 3.988281 1.410156 C 3.546875 1.410156 3.191406 1.765625 3.191406 2.207031 L 3.191406 7.792969 L 0.796875 7.792969 C 0.355469 7.792969 0 8.148438 0 8.589844 L 0 42.796875 C 0 43.238281 0.355469 43.59375 0.796875 43.59375 L 21.792969 43.59375 L 22.683594 44.636719 C 22.835938 44.8125 23.058594 44.914062 23.289062 44.914062 L 26.710938 44.914062 C 26.945312 44.914062 27.164062 44.8125 27.316406 44.636719 L 28.207031 43.59375 L 32.578125 43.59375 L 32.578125 46.515625 C 32.578125 47.660156 33.511719 48.589844 34.65625 48.589844 L 36.355469 48.589844 C 37.5 48.589844 38.429688 47.660156 38.429688 46.515625 L 38.429688 43.59375 L 49.203125 43.59375 C 49.644531 43.59375 50 43.238281 50 42.796875 L 50 8.589844 C 50 8.148438 49.644531 7.792969 49.203125 7.792969 Z M 36.835938 13.429688 L 36.835938 40.292969 L 34.175781 40.292969 L 34.175781 13.429688 Z M 34.175781 41.886719 L 36.835938 41.886719 L 36.835938 43.484375 L 34.175781 43.484375 Z M 34.574219 11.835938 L 35.503906 9.601562 L 36.4375 11.835938 Z M 36.355469 46.996094 L 34.65625 46.996094 C 34.394531 46.996094 34.175781 46.773438 34.175781 46.515625 L 34.175781 45.078125 L 36.835938 45.078125 L 36.835938 46.515625 C 36.835938 46.773438 36.617188 46.996094 36.355469 46.996094 Z M 48.402344 42 L 38.429688 42 L 38.429688 12.632812 C 38.429688 12.605469 38.429688 12.578125 38.425781 12.554688 C 38.425781 12.53125 38.421875 12.511719 38.417969 12.488281 C 38.417969 12.484375 38.417969 12.480469 38.414062 12.476562 C 38.402344 12.421875 38.386719 12.367188 38.367188 12.316406 L 36.242188 7.21875 C 36.117188 6.921875 35.828125 6.730469 35.503906 6.730469 C 35.183594 6.730469 34.894531 6.921875 34.769531 7.21875 L 32.644531 12.320312 C 32.621094 12.367188 32.605469 12.421875 32.59375 12.476562 C 32.59375 12.480469 32.59375 12.484375 32.59375 12.488281 C 32.589844 12.511719 32.585938 12.53125 32.582031 12.554688 C 32.582031 12.578125 32.578125 12.605469 32.578125 12.632812 L 32.578125 42 L 28.054688 42 C 27.648438 42 27.269531 42.191406 27.027344 42.519531 L 26.34375 43.320312 L 23.65625 43.320312 L 22.972656 42.519531 C 22.730469 42.191406 22.351562 42 21.941406 42 L 1.597656 42 L 1.597656 9.386719 L 3.191406 9.386719 L 3.191406 36.414062 C 3.191406 36.855469 3.546875 37.210938 3.988281 37.210938 L 21.945312 37.210938 C 22.832031 37.210938 23.660156 37.621094 24.203125 38.3125 L 24.203125 39.421875 C 23.527344 39.023438 22.75 38.808594 21.945312 38.808594 L 3.988281 38.808594 C 3.546875 38.808594 3.191406 39.164062 3.191406 39.605469 C 3.191406 40.046875 3.546875 40.402344 3.988281 40.402344 L 21.945312 40.402344 C 22.90625 40.402344 23.800781 40.882812 24.335938 41.6875 C 24.351562 41.710938 24.371094 41.738281 24.390625 41.757812 C 24.398438 41.765625 24.402344 41.773438 24.40625 41.777344 C 24.421875 41.792969 24.4375 41.808594 24.453125 41.824219 C 24.460938 41.832031 24.46875 41.839844 24.476562 41.84375 C 24.492188 41.859375 24.511719 41.871094 24.527344 41.886719 C 24.535156 41.890625 24.539062 41.894531 24.546875 41.898438 C 24.570312 41.917969 24.597656 41.933594 24.625 41.949219 C 24.648438 41.960938 24.675781 41.972656 24.703125 41.984375 C 24.710938 41.988281 24.71875 41.988281 24.726562 41.992188 C 24.746094 42 24.769531 42.007812 24.792969 42.011719 C 24.800781 42.015625 24.808594 42.019531 24.816406 42.019531 C 24.839844 42.023438 24.859375 42.027344 24.882812 42.03125 C 24.890625 42.035156 24.898438 42.035156 24.90625 42.035156 C 24.9375 42.039062 24.96875 42.042969 25 42.042969 C 25.03125 42.042969 25.0625 42.039062 25.09375 42.035156 C 25.101562 42.035156 25.109375 42.035156 25.117188 42.03125 C 25.140625 42.027344 25.160156 42.023438 25.183594 42.019531 C 25.191406 42.019531 25.199219 42.015625 25.210938 42.011719 C 25.230469 42.007812 25.253906 42 25.273438 41.992188 C 25.28125 41.988281 25.289062 41.988281 25.296875 41.984375 C 25.324219 41.972656 25.351562 41.960938 25.375 41.949219 C 25.402344 41.933594 25.429688 41.917969 25.453125 41.898438 C 25.460938 41.894531 25.46875 41.890625 25.472656 41.886719 C 25.492188 41.871094 25.507812 41.859375 25.523438 41.84375 C 25.53125 41.839844 25.539062 41.832031 25.546875 41.824219 C 25.5625 41.808594 25.578125 41.792969 25.59375 41.777344 C 25.597656 41.773438 25.601562 41.765625 25.609375 41.757812 C 25.628906 41.734375 25.648438 41.710938 25.664062 41.6875 C 26.199219 40.882812 27.09375 40.402344 28.058594 40.402344 L 30.1875 40.402344 C 30.628906 40.402344 30.984375 40.046875 30.984375 39.605469 C 30.984375 39.164062 30.628906 38.808594 30.1875 38.808594 L 28.058594 38.808594 C 27.25 38.808594 26.472656 39.023438 25.796875 39.417969 L 25.796875 38.3125 C 26.339844 37.621094 27.167969 37.210938 28.058594 37.210938 L 30.1875 37.210938 C 30.628906 37.210938 30.984375 36.855469 30.984375 36.414062 C 30.984375 35.972656 30.628906 35.617188 30.1875 35.617188 L 28.058594 35.617188 C 26.90625 35.617188 25.820312 36.054688 25 36.824219 C 24.179688 36.054688 23.09375 35.617188 21.945312 35.617188 L 4.789062 35.617188 L 4.789062 3.003906 L 21.945312 3.003906 C 22.90625 3.003906 23.800781 3.484375 24.335938 4.289062 C 24.484375 4.511719 24.734375 4.644531 25 4.644531 C 25.265625 4.644531 25.515625 4.511719 25.664062 4.289062 C 26.199219 3.484375 27.09375 3.003906 28.054688 3.003906 L 45.210938 3.003906 L 45.210938 35.617188 L 40.824219 35.617188 C 40.382812 35.617188 40.027344 35.972656 40.027344 36.414062 C 40.027344 36.855469 40.382812 37.210938 40.824219 37.210938 L 46.011719 37.210938 C 46.453125 37.210938 46.808594 36.855469 46.808594 36.414062 L 46.808594 9.386719 L 48.402344 9.386719 Z M 48.402344 42 "/>
<path style=" stroke:none;fill-rule:nonzero;fill:rgb(0%,0%,0%);fill-opacity:1;" d="M 46.011719 38.808594 L 40.824219 38.808594 C 40.382812 38.808594 40.027344 39.164062 40.027344 39.605469 C 40.027344 40.046875 40.382812 40.402344 40.824219 40.402344 L 46.011719 40.402344 C 46.453125 40.402344 46.808594 40.046875 46.808594 39.605469 C 46.808594 39.164062 46.453125 38.808594 46.011719 38.808594 Z M 46.011719 38.808594 "/>
</g>
</svg>
